<?xml version="1.0" encoding="utf-8"?>
<!-- Generator: Adobe Illustrator 23.1.0, SVG Export Plug-In . SVG Version: 6.00 Build 0)  -->
<svg version="1.1" xmlns="http://www.w3.org/2000/svg" xmlns:xlink="http://www.w3.org/1999/xlink" x="0px" y="0px"
	 viewBox="0 0 20 20" style="enable-background:new 0 0 20 20;" xml:space="preserve">
<style type="text/css">
	.st0{fill:none;stroke:#EAEAEA;stroke-miterlimit:10;}
</style>
<g id="Layer_1">
	<path class="st0" d="M15.5,8.5c0,0-2.7,0-5.46,0H4.5c-2,0-2,2-2,2v8h15c0,0,0-6,0-8S15.5,8.5,15.5,8.5z M11.61,14.55
		c0,0,0,0,0,0.01c0.02,0.13,0.03,0.26,0.03,0.4c0,1.1-0.67,1.98-1.5,1.97c-0.83-0.02-1.5-0.91-1.5-2c0-0.14,0.01-0.27,0.03-0.4
		c-0.63-0.37-1.03-0.95-1.03-1.61c0-1.09,1.11-1.96,2.48-1.96c1.39,0,2.52,0.9,2.52,2C12.64,13.62,12.23,14.2,11.61,14.55z"/>
</g>
<g id="Layer_2">
	<path class="st0" d="M15.5,8.5c0,0-2.7,0-5.46,0H4.5C3.57,6.39,5.97,1.47,10,1.47S16.43,6.39,15.5,8.5z"/>
</g>
<g id="Layer_3">
	<path class="st0" d="M11.61,14.55c0,0,0,0,0,0.01c0.02,0.13,0.03,0.26,0.03,0.4c0,1.1-0.67,1.98-1.5,1.97
		c-0.83-0.02-1.5-0.91-1.5-2c0-0.14,0.01-0.27,0.03-0.4c-0.63-0.37-1.03-0.95-1.03-1.61c0-1.09,1.11-1.96,2.48-1.96
		c1.39,0,2.52,0.9,2.52,2C12.64,13.62,12.23,14.2,11.61,14.55z"/>
</g>
</svg>
